<?xml version="1.0" encoding="UTF-8"?>
<svg id="Layer_1" xmlns="http://www.w3.org/2000/svg" xmlns:xlink="http://www.w3.org/1999/xlink" version="1.1" viewBox="0 0 512.7 509.3">
  <!-- Generator: Adobe Illustrator 30.2.1, SVG Export Plug-In . SVG Version: 2.1.1 Build 1)  -->
  <defs>
    <style>
      .st0 {
        fill: url(#linear-gradient2);
      }

      .st0, .st1, .st2, .st3, .st4, .st5, .st6, .st7 {
        stroke: #253120;
        stroke-linecap: round;
        stroke-linejoin: round;
        stroke-width: 8px;
      }

      .st1 {
        fill: url(#linear-gradient1);
      }

      .st2 {
        fill: url(#linear-gradient3);
      }

      .st3 {
        fill: url(#linear-gradient4);
      }

      .st4 {
        fill: url(#linear-gradient);
      }

      .st5 {
        fill: #78953c;
      }

      .st6 {
        fill: #5a6672;
      }

      .st7 {
        fill: #5f6b78;
      }

      .st8 {
        fill: #f7e2c3;
        isolation: isolate;
        opacity: .9;
      }
    </style>
    <linearGradient id="linear-gradient" x1="41.4" y1="402.3" x2="258.4" y2="50.3" gradientTransform="translate(0 512) scale(1 -1)" gradientUnits="userSpaceOnUse">
      <stop offset="0" stop-color="#c9e36d"/>
      <stop offset=".6" stop-color="#93b745"/>
      <stop offset="1" stop-color="#5a762d"/>
    </linearGradient>
    <linearGradient id="linear-gradient1" x1="264.9" y1="347.9" x2="514.9" y2="52.9" gradientTransform="translate(0 512) scale(1 -1)" gradientUnits="userSpaceOnUse">
      <stop offset="0" stop-color="#7cb7dc"/>
      <stop offset=".6" stop-color="#4f89b0"/>
      <stop offset="1" stop-color="#31556f"/>
    </linearGradient>
    <linearGradient id="linear-gradient2" x1="383.2" y1="410.7" x2="562.2" y2="129.7" gradientTransform="translate(0 512) scale(1 -1)" gradientUnits="userSpaceOnUse">
      <stop offset="0" stop-color="#8c97a3"/>
      <stop offset=".5" stop-color="#66707b"/>
      <stop offset="1" stop-color="#47505a"/>
    </linearGradient>
    <linearGradient id="linear-gradient3" x1="-27.3" y1="290.9" x2="141.7" y2="52.9" gradientTransform="translate(0 512) scale(1 -1)" gradientUnits="userSpaceOnUse">
      <stop offset="0" stop-color="#95a255"/>
      <stop offset="1" stop-color="#5f6938"/>
    </linearGradient>
    <linearGradient id="linear-gradient4" x1="110.9" y1="483.8" x2="399.9" y2="338.8" gradientTransform="translate(0 512) scale(1 -1)" gradientUnits="userSpaceOnUse">
      <stop offset="0" stop-color="#efd0a4"/>
      <stop offset=".5" stop-color="#d8a86c"/>
      <stop offset="1" stop-color="#ba7f45"/>
    </linearGradient>
  </defs>
  <polygon class="st4" points="256.4 200.9 1.4 100.7 1.4 203.3 86.4 236.7 86.4 440.2 171.4 474.4 171.4 270.1 256.4 303.5 256.4 200.9"/>
  <polygon class="st1" points="341.5 167.5 256.4 200.9 256.4 508.5 341.5 474.8 341.5 372.6 426.5 441 511.5 407.2 483.5 384.7 384 304.6 413.6 257.3 511.5 100.7 426.5 134.1 341.5 270.1 341.5 167.5"/>
  <polygon class="st0" points="511.5 100.7 384 304.6 511.5 407.2 511.5 100.7"/>
  <polygon class="st6" points="426.5 134.1 341.5 167.5 341.5 270.1 426.5 134.1"/>
  <polygon class="st7" points="341.5 372.6 341.5 474.8 426.5 441 341.5 372.6"/>
  <polygon class="st2" points="1.4 203.3 86.4 236.7 86.4 440.2 1.4 406 1.4 203.3"/>
  <polygon class="st5" points="171.4 270.1 256.4 303.5 256.4 508.5 171.4 474.3 171.4 270.1"/>
  <polygon class="st3" points="256.4 .5 509.5 100.7 256.4 200.9 1.4 100.7 256.4 .5"/>
  <polygon class="st8" points="371.9 50.5 386 56 141.5 151.5 127.5 145.9 371.9 50.5"/>
</svg>